<svg xmlns="http://www.w3.org/2000/svg" xml:space="preserve" style="fill-rule:evenodd;clip-rule:evenodd;stroke-linejoin:round;stroke-miterlimit:2" viewBox="0 0 2480 2480"><path d="M1413.035 1209.846s445.08-249.028 663.529-371.812c175.967-98.904 187.16-7.79 190.019 27.535 4.701 58.354 18.36 208.336 30.055 337.535 7.593 83.937 14.356 159.102 17.302 194.7 7.462 90.372 11.793 100.922-106.497 183.33-123.548 86.065-43.408 214.5-43.408 214.5l141.243 233.057c19.397 34.32 15.862 41.783-21.36 60.601l-635.514 372.042c-54.295 32.095-61.932 21.567-104.478-22.146l-126.712-209.918c-26.652-29.139-46.038-123.592-183.42-69.023l-122.119 47.444c-78.918 20.935-128.632 32.783-171.09-16.527L824.4 2076.724c-11.204-21.982-19.244-42.175 8.836-61.08 0 0 1106.382-656.1 1160.013-686.744s63.798-76.453 26.717-118.432-89.915-5.847-89.915-5.847-335.746 183.713-377.878 208.237c-42.143 24.513-60.329-.85-60.329-.85s-67.812-107.567-93.198-149.23c-25.375-41.663 14.39-52.932 14.39-52.932M936.297 1707.138s-120.516 87.09-207.245 141.952c-86.718 54.852-112.42-4.44-112.42-4.44s-502.758-710.166-552.44-778.993c-49.68-68.838 3.59-99.962 3.59-99.962s186.146-129.287 248.995-175.968c62.849-46.692 103.235 15.24 103.235 15.24l528.503 822.86s32.401 52.234-12.218 79.31"/><path d="M568.685 661.979 787.33 529.397s37.975-20.05 70.9 33.82c32.924 53.87 351.695 589.879 351.695 589.879s18.055 27.753 4.91 39.273c-14.39 12.612-25.529 17.084-10.343 44.052 14.706 26.128 105.897 194.852 105.897 194.852s26.237 47.674-13.986 73.53c-40.222 25.854-161.13 96.623-161.13 96.623s-44.184 28.823-62.958-2.203c-18.765-31.027-532.202-870.403-532.202-870.403s-23.019-35.837 28.572-66.841M1465.25 123.833 1675.177 5.848s34.473-22.604 56.314 21.066c21.83 43.67 294.247 623.622 294.247 623.622s16.091 28.343-10.724 48.263-176.208 112.148-176.208 112.148-33.71 16.855-57.841-18.382c-24.132-35.248-333.434-600.123-333.434-600.123s-28.604-42.645 17.717-68.61M990.778 424.177l267.104-162.353s41.903-27.688 68.086 23.935c26.182 51.634 304.37 565.071 304.37 565.071s24.634 43.18-15.207 66.93c-39.841 23.749-228.398 131.01-228.398 131.01s-43.67 28.735-85.431-34.092C1259.552 951.85 977.054 478.2 977.054 478.2s-24.251-31.855 13.724-54.023"/></svg>